<svg width="198" height="140" viewBox="0 0 198 140" fill="none" xmlns="http://www.w3.org/2000/svg">
<g clip-path="url(#clip0_402_1077)">
<path opacity="0.74" d="M13.9461 113.749C28.4658 124.095 56.0304 130.857 67.6817 132.864C99.3389 138.447 139.05 145.239 168.694 132.946C186.125 125.694 175.535 95.9842 174.779 85.8643C174.022 75.7445 195.834 80.5545 187.53 56.178C179.226 31.8015 142.414 13.4405 113.509 9.82408C84.6033 6.2077 81.5257 22.2022 60.1615 26.4026C38.7974 30.6031 31.9691 20.7394 15.0329 33.7675C-1.90336 46.7956 17.5241 72.0162 19.9543 79.5098C21.3053 83.6254 12.6296 86.8262 10.099 89.3395C0.577249 98.7851 4.50231 107.043 13.9461 113.749Z" fill="url(#paint0_linear_402_1077)" fill-opacity="0.8"/>
<path opacity="0.44" d="M13.9461 113.749C28.4658 124.095 56.0304 130.857 67.6817 132.864C99.3389 138.447 139.05 145.239 168.694 132.946C186.125 125.694 175.535 95.9842 174.779 85.8643C174.022 75.7445 195.834 80.5545 187.53 56.178C179.226 31.8015 142.414 13.4405 113.509 9.82408C84.6033 6.2077 81.5257 22.2022 60.1615 26.4026C38.7974 30.6031 31.9691 20.7394 15.0329 33.7675C-1.90336 46.7956 17.5241 72.0162 19.9543 79.5098C21.3053 83.6254 12.6296 86.8262 10.099 89.3395C0.577249 98.7851 4.50231 107.043 13.9461 113.749Z" fill="white"/>
<path opacity="0.8" d="M122.93 119.782H156.777C156.777 119.782 157.203 111.464 148.477 111.677C148.477 111.677 153.585 104.84 144.859 101.426C135.699 100.788 137.083 109.806 137.083 109.806C137.083 109.806 134.422 106.818 129.687 109.061C124.952 111.305 126.92 115.942 126.974 116.155C127.027 116.368 121.768 115.676 122.93 119.782Z" fill="white"/>
<path d="M104.273 130.725V103.173" stroke="#E27493" stroke-width="4" stroke-miterlimit="10" stroke-linecap="round"/>
<path d="M111.376 106.906V115.224" stroke="#E27493" stroke-width="4" stroke-miterlimit="10" stroke-linecap="round"/>
<path d="M94.7935 125.511V116.545" stroke="#E27493" stroke-width="4" stroke-miterlimit="10" stroke-linecap="round"/>
<path d="M118.239 100.531V82.3436" stroke="#F9CDD8" stroke-width="4" stroke-miterlimit="10" stroke-linecap="round"/>
<path d="M124.668 112.582V85.8196" stroke="#F9CDD8" stroke-width="4" stroke-miterlimit="10" stroke-linecap="round"/>
<path d="M134.36 77.8034V94.6694" stroke="#F9CDD8" stroke-width="4" stroke-miterlimit="10" stroke-linecap="round"/>
<path d="M77.1383 100.043V80.9691" stroke="#F9CDD8" stroke-width="4" stroke-miterlimit="10" stroke-linecap="round"/>
<path d="M94.7935 110.586V109.868" stroke="#E27493" stroke-width="4" stroke-miterlimit="10" stroke-linecap="round"/>
<path opacity="0.6" d="M27.507 82.2371H115.233C115.233 82.2371 109.114 68.0491 96.3985 70.0088C96.3985 70.0088 95.7335 54.6503 82.849 58.1175C69.9645 61.5847 75.5776 68.191 78.0605 68.856C78.0605 68.856 73.7598 62.4094 68.1467 65.5485C62.5336 68.6876 64.0144 71.3301 64.0144 71.3301C64.0144 71.3301 62.1257 60.3521 52.6197 62.906C43.8054 65.2736 46.9445 72.2168 46.9445 72.2168C42.759 69.5123 22.2042 71.9065 27.507 82.2371Z" fill="white"/>
<path opacity="0.6" d="M98.1897 61.966C98.1897 61.966 178.946 62.0104 185.916 61.966C185.916 54.6592 179.806 47.778 167.081 49.7466C167.081 49.7466 167.8 36.8799 154.924 37.607C148.052 38.6977 147.741 47.3613 148.717 48.585C148.717 48.585 145.054 43.8763 139.397 45.171C133.908 47.5918 134.679 51.0679 134.679 51.0679C134.679 51.0679 132.791 40.0811 123.276 42.6349C114.462 45.0025 117.601 51.9458 117.601 51.9458C113.451 49.2412 92.887 51.6354 98.1897 61.966Z" fill="white"/>
<path d="M126.175 45.8183H71.1971C68.7484 45.8183 66.7633 47.8034 66.7633 50.252V89.739C66.7633 92.1877 68.7484 94.1727 71.1971 94.1727H126.175C128.624 94.1727 130.609 92.1877 130.609 89.739V50.252C130.609 47.8034 128.624 45.8183 126.175 45.8183Z" fill="white" stroke="#E27493" stroke-width="4" stroke-miterlimit="10"/>
<path d="M74.7707 54.1715H86.1299" stroke="#E27493" stroke-width="3" stroke-linecap="round" stroke-linejoin="round"/>
<path d="M92.5588 54.1715H123.232" stroke="#E27493" stroke-width="3" stroke-linecap="round" stroke-linejoin="round"/>
<mask id="mask0_402_1077" style="mask-type:alpha" maskUnits="userSpaceOnUse" x="73" y="58" width="52" height="32">
<path d="M119.64 58.6052H77.7235C75.2749 58.6052 73.2898 60.5903 73.2898 63.039V84.8707C73.2898 87.3194 75.2749 89.3045 77.7235 89.3045H119.64C122.089 89.3045 124.074 87.3194 124.074 84.8707V63.039C124.074 60.5903 122.089 58.6052 119.64 58.6052Z" fill="#F9CDD8"/>
</mask>
<g mask="url(#mask0_402_1077)">
<path d="M119.64 58.6052H77.7235C75.2748 58.6052 73.2897 60.5903 73.2897 63.039V84.8707C73.2897 87.3194 75.2748 89.3045 77.7235 89.3045H119.64C122.089 89.3045 124.074 87.3194 124.074 84.8707V63.039C124.074 60.5903 122.089 58.6052 119.64 58.6052Z" fill="#F9CDD8"/>
<path d="M101.701 90.3597H121.893C122.164 90.3584 122.43 90.286 122.665 90.1497C122.899 90.0133 123.094 89.8179 123.23 89.5828C123.365 89.3477 123.437 89.0812 123.437 88.8099C123.437 88.5385 123.366 88.2719 123.232 88.0364L113.176 70.7448C113.04 70.5131 112.845 70.321 112.612 70.1875C112.379 70.054 112.114 69.9838 111.846 69.9838C111.577 69.9838 111.313 70.054 111.079 70.1875C110.846 70.321 110.652 70.5131 110.516 70.7448L100.424 88.0364C100.289 88.2669 100.216 88.5286 100.212 88.7958C100.208 89.063 100.274 89.3267 100.403 89.5609C100.531 89.7951 100.719 89.9919 100.946 90.1319C101.174 90.2719 101.434 90.3504 101.701 90.3597V90.3597Z" fill="white"/>
<path d="M73.21 92.3283H107.926C109.975 92.3283 111.252 90.3154 110.223 88.7103L92.8604 61.7709C92.6031 61.4014 92.2602 61.0996 91.8611 60.8911C91.462 60.6827 91.0184 60.5739 90.5681 60.5739C90.1179 60.5739 89.6743 60.6827 89.2751 60.8911C88.876 61.0996 88.5332 61.4014 88.2759 61.7709L70.9133 88.7103C69.8847 90.3154 71.1616 92.3283 73.21 92.3283Z" fill="white" stroke="#F9CDD8" stroke-width="3" stroke-miterlimit="10"/>
<path d="M115.198 64.6263L115.818 61.7355L116.439 64.6263L119.33 65.247L116.439 65.8677L115.818 68.7585L115.198 65.8677L112.307 65.247L115.198 64.6263Z" fill="white"/>
</g>
<path d="M57.9135 55.1736L57.2928 55.5371C57.2854 55.5429 57.2795 55.5503 57.2754 55.5588C57.2713 55.5672 57.2692 55.5765 57.2692 55.5859C57.2692 55.5953 57.2713 55.6046 57.2754 55.613C57.2795 55.6214 57.2854 55.6289 57.2928 55.6347L60.0506 57.4082L54.6149 57.284C54.4407 57.2757 54.268 57.3189 54.1183 57.4082L49.1968 60.3256C48.1855 60.9251 46.9775 61.0984 45.8384 60.8074C44.6993 60.5164 43.7224 59.7849 43.1226 58.7738L40.2938 54.003C39.9974 53.5018 39.8025 52.947 39.7205 52.3704C39.6385 51.7938 39.6709 51.2067 39.8158 50.6426C39.9607 50.0785 40.2154 49.5485 40.5652 49.0829C40.915 48.6173 41.3531 48.2251 41.8545 47.9288L50.589 42.7502C51.0903 42.4537 51.6451 42.2589 52.2217 42.1769C52.7983 42.0949 53.3854 42.1272 53.9494 42.2722C54.5135 42.4171 55.0435 42.6717 55.5092 43.0216C55.9748 43.3714 56.367 43.8095 56.6632 44.3109L59.4831 49.0816C59.782 49.5841 59.9785 50.1408 60.0614 50.7197C60.1442 51.2985 60.1118 51.8879 59.9659 52.4542C59.82 53.0204 59.5636 53.5521 59.2114 54.0188C58.8591 54.4856 58.4181 54.878 57.9135 55.1736V55.1736Z" fill="#E17493"/>
<path d="M50.4205 48.3899L51.0147 49.4717" stroke="white" stroke-miterlimit="10" stroke-linecap="round"/>
<path d="M46.9268 50.2875L47.5209 51.3694" stroke="white" stroke-miterlimit="10" stroke-linecap="round"/>
<path d="M47.6716 54.7302C48.8939 54.9432 50.1523 54.7599 51.263 54.207C52.3476 53.601 53.19 52.6395 53.6483 51.4847" stroke="white" stroke-miterlimit="10" stroke-linecap="round"/>
<path opacity="0.3" d="M56.2126 101.257L56.978 101.436L56.8155 100.667L56.8155 100.667L56.8155 100.667L56.8154 100.667L56.8149 100.664L56.8127 100.653L56.8037 100.608C56.7959 100.568 56.7845 100.508 56.7711 100.432C56.7441 100.279 56.7089 100.062 56.676 99.8057C56.6098 99.2882 56.556 98.6306 56.5936 98.0292C56.6332 97.397 56.7674 96.9557 56.9637 96.7469C57.0441 96.6614 57.1382 96.6107 57.2759 96.6004C57.4283 96.589 57.6646 96.6259 58.0111 96.7889L58.0111 96.7889L58.0149 96.7907C59.8488 97.6344 60.3775 99.5957 60.5701 101.781C60.6173 102.316 60.6434 102.85 60.6672 103.37C60.6691 103.411 60.6709 103.453 60.6728 103.494C60.6943 103.967 60.7154 104.43 60.7508 104.855C60.7892 105.316 60.8461 105.756 60.9465 106.139C60.9798 106.266 61.0192 106.391 61.0668 106.513C60.9296 106.528 60.7704 106.542 60.591 106.555C59.8088 106.61 58.7045 106.635 57.5227 106.6C56.3399 106.564 55.0936 106.47 54.0236 106.29C52.9345 106.107 52.1195 105.849 51.7087 105.541C51.4387 105.309 51.0553 104.787 50.7717 104.136C50.4851 103.478 50.3417 102.783 50.4541 102.222C50.5564 101.711 50.8797 101.249 51.7049 101.005C52.5745 100.747 53.9935 100.739 56.2126 101.257Z" fill="white" stroke="white"/>
<path opacity="0.3" d="M142.971 38.4583C143.228 38.343 145.152 36.0463 147.174 36.3921C149.196 36.738 150.038 39.0524 147.582 42.8743C145.507 46.1109 138.998 48.4519 138.998 48.4519C138.998 48.4519 134.945 41.2693 136.648 36.7291C137.26 35.0886 139.938 34.2285 141.082 34.6009C142.341 35.0532 142.971 38.4583 142.971 38.4583Z" fill="white"/>
<path d="M56.9381 99.6706C56.9381 99.6706 55.6878 93.7649 58.8446 95.2369C63.0656 97.1788 61.0083 104.202 62.436 105.718C62.7818 106.082 54.0739 106.401 52.0078 104.831C50.6156 103.67 47.9376 97.5779 56.9381 99.6706Z" fill="#E27493"/>
<path d="M143.582 37.3676C143.84 37.2523 145.773 34.9557 147.794 35.2926C149.816 35.6296 150.659 37.9529 148.193 41.7836C146.127 45.0203 139.619 47.3613 139.619 47.3613C139.619 47.3613 135.566 40.1786 137.269 35.6296C137.881 33.998 140.559 33.1378 141.703 33.5103C142.962 33.927 143.582 37.3676 143.582 37.3676Z" fill="#E27493"/>
<path opacity="0.3" d="M26.9926 50.323L34.397 50.6245L27.5158 53.3911L27.2232 60.7955L24.4476 53.9232L17.0433 53.6217L23.9244 50.855L24.2259 43.4507L26.9926 50.323Z" fill="white"/>
<path opacity="0.3" d="M154.445 90.5637L161.716 93.5875L154.108 93.8003L151.723 101.027L150.907 93.1973L143.645 90.1735L151.244 89.9607L153.629 82.7337L154.445 90.5637Z" fill="white"/>
<path opacity="0.3" d="M72.4474 123.196L77.9984 124.783L72.8819 125.448L72.74 130.609L70.5941 125.253L65.043 123.657L70.1596 122.992L70.3015 117.831L72.4474 123.196Z" fill="white"/>
<path opacity="0.75" d="M28.8282 49.5781L36.2325 49.8796L29.3514 52.6463L29.0587 60.0506L26.2921 53.1783L18.8788 52.8768L25.76 50.1102L26.0615 42.7058L28.8282 49.5781Z" fill="white"/>
<path opacity="0.75" d="M156.219 89.677L163.49 92.7008L155.882 92.9136L153.496 100.141L152.68 92.3106L145.418 89.2868L153.017 89.074L155.403 81.847L156.219 89.677Z" fill="white"/>
<path opacity="0.75" d="M74.2209 122.309L79.7719 123.897L74.6554 124.562L74.5135 129.723L72.3676 124.367L66.8165 122.77L71.9331 122.105L72.075 116.945L74.2209 122.309Z" fill="white"/>
</g>
<defs>
<linearGradient id="paint0_linear_402_1077" x1="87.3364" y1="139.481" x2="106.73" y2="-0.702758" gradientUnits="userSpaceOnUse">
<stop stop-color="#EA85AB"/>
<stop offset="0.99" stop-color="#389AD6"/>
</linearGradient>
<clipPath id="clip0_402_1077">
<rect width="197.364" height="140" fill="white"/>
</clipPath>
</defs>
</svg>
